# Blender 5.0.1
# www.blender.org
o Cube.001
v -2.217478 -2.462927 0.591868
v -2.094319 -1.703618 0.615178
v -2.331530 -3.834189 0.197290
v -2.431309 -2.588295 0.137940
v -2.312557 -1.618074 -0.048149
v -1.868442 -1.999647 0.919684
v -1.872926 -0.786006 0.823844
v -1.888201 -3.859711 0.637695
v -2.088400 -3.184076 0.690699
v -1.988100 -1.117015 0.126986
v -1.586215 -0.978706 1.131808
v -1.964224 -4.208537 0.000146
v -1.500631 0.900715 0.302041
v -1.411048 -1.916547 1.136647
v -1.480416 -3.804809 0.556373
v -1.045504 -0.067485 1.257856
v -1.163791 -2.488927 0.971229
v -1.277729 -3.449174 0.119255
v -0.903656 -1.098821 1.154206
v -0.904725 -2.557320 0.792413
v -0.919038 -2.488989 0.102690
v -0.530831 -0.108214 1.352556
v -0.760348 -1.233040 1.003042
v -0.600529 -1.353991 0.649959
v -0.719405 -1.842300 -0.044465
v -0.415436 -0.314011 1.147831
v -0.433669 -0.341723 0.851919
v -0.093321 0.405371 1.045047
v -0.148282 -0.220737 0.575384
v -0.030183 -0.598516 -0.060973
v -1.313336 0.276111 1.120176
v -1.513581 0.806016 0.798656
v -1.190566 1.588380 0.068476
v -0.731284 0.786132 1.205764
v -1.145961 1.751981 0.464480
v -0.793462 2.211651 0.654273
v -0.699255 3.339796 0.428730
v -0.858820 2.484200 -0.117690
v -0.528023 3.584480 0.146501
v -0.311274 1.827546 1.041556
v -0.564028 3.342060 0.741672
v -0.321520 3.752666 0.321654
v -0.407912 4.822074 -0.093144
v -0.156419 3.079414 1.038441
v 0.011860 3.409862 0.571601
v -2.690518 -0.899289 -0.757790
v -2.674985 -1.186106 -1.015774
v -2.723986 -0.497864 -1.036235
v -2.389560 -0.601447 -0.552111
v -2.298951 -1.155435 -0.606030
v -2.325879 -1.001234 -1.318267
v -2.244398 -3.702278 -0.290759
v -2.328212 -2.774053 -0.265505
v -2.181923 -1.508298 -0.396203
v -2.038759 -1.056998 -0.845610
v -1.989768 -0.613475 -0.223208
v -1.914417 -1.669606 -0.598799
v -1.356994 -3.333752 -0.331281
v -1.538987 -2.953019 -0.480332
v -1.699539 -0.574744 -1.245276
v -1.432223 -0.656348 -0.722935
v -1.214952 -0.568369 -1.426347
v -1.212410 -2.476964 -0.421641
v -1.039825 -0.317969 -1.050092
v -1.001492 -1.562222 -0.534461
v -0.907840 -0.019803 -1.204953
v -0.726181 -0.096847 -1.457623
v -0.551016 -1.184570 -0.456992
v -0.642810 -0.147237 -0.925010
v -0.308298 0.171383 -1.516688
v -0.066065 -0.688494 -0.697670
v 0.149537 -0.528972 -0.484823
v -0.206772 0.144828 -0.933757
v -2.682479 0.034910 -0.819922
v -2.368042 0.535172 -0.600361
v -2.605950 0.124342 -1.072180
v -2.155733 1.064252 -0.529035
v -2.313597 0.061381 -1.329044
v -1.995494 1.101311 -0.231338
v -1.975088 1.104605 -1.079801
v -2.023070 0.264130 -1.320180
v -1.577764 1.059124 0.096631
v -1.710449 1.461205 -0.708345
v -1.446334 0.014984 -1.213743
v -1.603626 1.845671 -0.196916
v -1.459323 1.055269 -0.938150
v -0.984896 2.303269 -0.445061
v -1.119403 2.016402 -0.678827
v -1.095481 0.133340 -1.147260
v -0.906092 1.461017 -0.952523
v -0.831405 0.193426 -1.390526
v -0.520905 1.224399 -1.475428
v -0.641491 3.673200 -0.277518
v -0.559932 3.413396 -0.616094
v -0.552321 1.669273 -1.370931
v -0.433233 4.862047 -0.413981
v -0.449159 2.954474 -0.824142
v -0.194935 6.285739 -0.139548
v -0.072381 7.216310 -0.510053
v -0.180931 3.844516 -0.931953
v 0.129746 1.076581 -0.960335
v -0.210471 1.514594 -1.452906
v 0.218027 0.237663 1.042262
v 0.295472 -0.507145 0.341643
v 0.497592 0.170293 0.787505
v 0.636694 0.212027 0.222050
v 0.367222 1.565512 1.286832
v 0.269329 2.792869 0.869804
v 0.242914 4.268266 0.395365
v 0.060239 6.311209 0.033078
v 0.498074 2.168403 1.404727
v 0.703238 2.801232 1.037657
v 0.557507 5.473950 0.039061
v 0.836849 2.006638 1.398982
v 0.594880 3.409902 0.599376
v 1.044617 1.022716 1.128109
v 0.982439 2.575366 1.264156
v 1.290603 3.626732 0.890268
v 1.060379 0.847511 0.561182
v 0.920387 3.432762 0.590115
v 0.749539 5.194181 0.142630
v 1.008657 0.939611 0.022820
v 0.976253 4.586451 0.077040
v 1.445741 1.845245 1.192264
v 1.432391 1.146241 0.811856
v 1.164355 3.600038 0.355654
v 1.617734 3.187824 0.682062
v 1.646968 1.887263 -0.049671
v 1.696903 3.318251 0.189052
v 1.677535 1.890476 0.589417
v 1.745048 2.693630 -0.013954
v 0.448242 0.330868 -0.457766
v 0.640723 0.424573 -0.121192
v 0.612080 0.968659 -0.291988
v 0.145672 7.437063 -0.404377
v 0.059490 5.318238 -0.948336
v 0.084193 6.489274 -0.864849
v 0.157860 1.942690 -1.217847
v -0.003866 3.199519 -1.093885
v 0.432616 7.441058 -0.893354
v 0.589653 7.379345 -0.471857
v 0.496302 1.761595 -0.658983
v 0.558681 7.745072 -0.671769
v 0.370356 3.989521 -0.927344
v 0.394148 5.797788 -1.037526
v 0.514099 3.199382 -0.717106
v 0.846795 4.366237 -0.618651
v 0.911917 5.822871 -0.899004
v 0.906177 5.783902 -0.169686
v 0.745477 1.562443 -0.481597
v 0.956671 3.648616 -0.574212
v 1.012112 5.240963 -0.306706
v 0.932104 6.515461 -0.863362
v 1.222002 3.750075 -0.295083
v 1.063251 1.970610 -0.549901
v 1.450577 2.481802 -0.460887
v 1.380546 3.056430 -0.627568
v 1.654686 3.204462 -0.316944
v 1.459196 3.333287 -0.420635
vn -0.8980 -0.0511 0.4371
vn -0.4408 0.0440 0.8965
vn -0.7143 0.0525 0.6979
vn -0.4166 -0.0731 0.9062
vn 0.2068 -0.8685 0.4505
vn -0.1808 -0.0287 0.9831
vn 0.2562 -0.2925 0.9213
vn 0.5184 -0.2062 0.8299
vn 0.2427 -0.1711 0.9549
vn 0.9351 -0.3503 -0.0541
vn 0.5060 -0.3484 0.7890
vn -0.1890 -0.1239 0.9741
vn 0.9696 -0.2444 0.0059
vn 0.7105 -0.4611 0.5315
vn 0.9116 -0.4107 -0.0177
vn 0.7263 -0.2477 0.6412
vn 0.9266 -0.3634 0.0969
vn -0.9252 0.3764 0.0476
vn -0.9223 0.1620 0.3509
vn -0.1702 0.1223 0.9778
vn -0.5550 0.3433 0.7577
vn -0.5720 0.1026 0.8138
vn -0.9395 0.3407 -0.0349
vn -0.0102 0.1597 0.9871
vn -0.7048 0.6888 0.1696
vn 0.0817 0.7994 0.5953
vn -0.4453 -0.1586 0.8812
vn -0.6325 -0.0680 -0.7715
vn -0.9411 0.0747 -0.3297
vn 0.2332 -0.9620 -0.1420
vn 0.2598 -0.9279 -0.2673
vn -0.7551 -0.5864 -0.2933
vn -0.8123 0.5697 -0.1252
vn -0.9586 0.1604 0.2352
vn -0.6082 -0.0117 -0.7937
vn -0.6355 -0.0128 0.7720
vn -0.6920 -0.5245 -0.4961
vn -0.9349 0.2005 0.2927
vn 0.9588 -0.1846 -0.2160
vn 0.8248 -0.3162 -0.4687
vn 0.5018 -0.6581 0.5614
vn -0.0290 -0.4132 -0.9102
vn 0.4050 -0.6246 -0.6677
vn 0.2602 -0.9614 -0.0891
vn 0.6738 -0.7258 -0.1385
vn 0.1461 -0.2467 -0.9580
vn -0.9583 0.1684 -0.2310
vn -0.8335 0.5494 -0.0581
vn -0.5325 0.0522 -0.8448
vn -0.6600 -0.0000 -0.7512
vn -0.9232 0.3486 0.1619
vn -0.4521 0.5987 -0.6613
vn -0.1665 0.2799 -0.9455
vn -0.8888 0.1352 0.4380
vn -0.6174 0.0017 0.7866
vn -0.6987 0.6343 -0.3309
vn -0.6936 0.6984 -0.1763
vn -0.8893 0.1339 0.4372
vn -0.5779 0.2686 0.7706
vn 0.0959 0.2560 -0.9619
vn -0.1302 0.6029 0.7871
vn 0.0557 0.2417 -0.9688
vn -0.6737 0.3693 -0.6401
vn -0.6881 0.2004 -0.6974
vn -0.7914 0.1575 -0.5907
vn -0.2057 0.1490 -0.9672
vn -0.8690 0.2687 -0.4155
vn -0.4265 0.0541 -0.9029
vn -0.6434 0.1317 -0.7541
vn -0.9781 0.1828 0.1000
vn -0.1458 0.0093 -0.9893
vn -0.9846 0.1463 0.0959
vn -0.7313 0.1566 -0.6638
vn -0.6185 0.3491 -0.7039
vn -0.5418 0.0617 -0.8383
vn -0.1334 0.2177 -0.9669
vn -0.1313 0.2220 -0.9662
vn -0.2931 -0.5571 0.7770
vn 0.3003 -0.7878 0.5378
vn 0.0704 -0.5630 0.8235
vn 0.8986 -0.3945 0.1920
vn -0.3574 -0.0525 0.9325
vn -0.2583 0.1462 0.9549
vn 0.1495 0.4594 0.8756
vn -0.0680 -0.1772 0.9818
vn 0.0829 0.2625 0.9614
vn 0.7386 -0.0294 0.6735
vn 0.4732 -0.5715 0.6704
vn -0.3565 0.4041 0.8424
vn 0.7844 -0.6022 0.1485
vn 0.0102 0.2471 0.9689
vn 0.4854 -0.8314 0.2704
vn 0.5743 0.2535 0.7784
vn 0.6880 0.1791 0.7033
vn 0.7120 -0.4058 -0.5730
vn 0.7353 0.6457 -0.2059
vn 0.5174 0.8031 0.2955
vn 0.9871 0.0343 0.1562
vn 0.8164 -0.4695 -0.3362
vn 0.8901 -0.3195 0.3250
vn 0.8755 -0.1022 -0.4723
vn -0.8685 0.0535 -0.4928
vn -0.6495 0.2159 -0.7291
vn 0.8848 -0.1590 -0.4380
vn 0.4103 0.1416 -0.9009
vn 0.1846 0.3437 0.9207
vn 0.6145 -0.2433 -0.7505
vn 0.3045 0.0562 -0.9509
vn -0.3544 0.0739 -0.9322
vn -0.3235 0.0902 -0.9419
vn 0.8191 -0.0036 -0.5736
vn 0.7880 -0.1601 -0.5945
vn 0.8504 -0.0318 -0.5253
vn 0.7456 -0.1579 -0.6475
vn 0.2608 -0.0621 -0.9634
vn 0.5954 0.2971 -0.7464
vn 0.8141 -0.4980 -0.2988
vn 0.6944 0.1840 0.6957
vn 0.1490 0.4316 0.8897
vn 0.3376 -0.3543 -0.8721
vn 0.9652 0.2227 0.1369
vn 0.7044 0.0937 -0.7036
vn -0.1583 -0.0244 -0.9871
vn 0.5544 0.4594 -0.6940
vn 0.5525 -0.4269 -0.7159
vn 0.5903 -0.3181 -0.7418
vn 0.6429 0.5319 -0.5512
vn 0.9312 0.0078 -0.3644
vn 0.4094 0.4688 -0.7827
vn 0.4869 0.0363 -0.8727
vn -0.7854 0.0363 0.6179
vn -0.7815 -0.1645 0.6018
vn -0.3537 -0.1365 0.9253
vn -0.9734 0.2223 0.0553
vn -0.5000 -0.7333 0.4608
vn -0.8405 0.4283 0.3318
vn 0.8009 -0.1782 0.5717
vn -0.9718 0.2303 0.0512
vn 0.2248 -0.2938 0.9291
vn 0.7436 -0.6441 -0.1793
vn -0.5696 -0.0085 -0.8219
vn 0.9008 -0.4287 0.0689
vn 0.1033 -0.0854 0.9910
vn -0.6827 0.1608 0.7128
vn 0.9511 -0.3050 -0.0499
vn 0.6257 -0.3451 0.6996
vn 0.9372 -0.3478 -0.0252
vn 0.8532 -0.2337 0.4663
vn 0.8006 -0.4382 0.4087
vn -0.9753 0.2204 0.0166
vn -0.4132 0.4085 0.8139
vn -0.3641 0.0878 0.9272
vn -0.2801 0.1609 0.9464
vn -0.9418 0.2873 -0.1748
vn -0.9174 0.3935 -0.0592
vn -0.6541 0.2004 0.7294
vn -0.9074 0.1539 0.3910
vn -0.9754 -0.0856 -0.2030
vn -0.5961 0.0591 0.8007
vn -0.6695 0.6863 0.2843
vn 0.7276 -0.2336 0.6450
vn 0.5086 0.0800 0.8573
vn -0.5568 0.0709 0.8276
vn 0.1376 0.6674 0.7319
vn -0.7229 0.1983 0.6619
vn -0.9973 -0.0705 0.0183
vn -0.5907 -0.5571 0.5838
vn -0.0709 -0.1814 -0.9808
vn -0.9593 0.0647 -0.2749
vn -0.9560 -0.1790 0.2323
vn -0.5773 -0.0299 -0.8160
vn -0.5305 -0.4072 -0.7435
vn 0.1396 -0.4341 -0.8900
vn 0.5524 -0.7268 -0.4082
vn 0.3661 -0.2829 -0.8865
vn 0.1225 -0.1099 -0.9864
vn 0.7326 -0.6172 -0.2870
vn 0.7771 -0.5549 0.2970
vn 0.4278 -0.8337 -0.3492
vn 0.1909 -0.8558 0.4807
vn 0.3991 -0.1625 -0.9024
vn 0.1178 -0.1483 -0.9819
vn -0.3923 -0.3624 -0.8454
vn 0.8418 -0.2529 -0.4768
vn 0.4204 -0.3389 -0.8417
vn 0.7066 -0.3571 -0.6109
vn 0.5597 -0.5384 -0.6300
vn 0.7922 -0.5838 -0.1779
vn 0.4584 -0.5609 -0.6893
vn -0.6115 0.0508 0.7896
vn -0.9893 0.0182 0.1451
vn -0.6775 0.0183 0.7353
vn 0.2787 0.2493 -0.9275
vn -0.8580 0.2868 0.4261
vn -0.8958 0.3547 -0.2678
vn 0.0379 -0.0106 -0.9992
vn -0.8218 0.4146 0.3908
vn 0.1517 -0.0297 -0.9880
vn -0.6303 0.6672 -0.3969
vn 0.2654 0.5941 -0.7594
vn -0.3454 0.1974 -0.9175
vn -0.2891 0.4222 0.8592
vn -0.5059 0.2328 -0.8306
vn -0.2742 0.3397 -0.8997
vn 0.0546 0.3610 -0.9310
vn -0.9169 0.3704 0.1484
vn -0.5384 0.1970 -0.8193
vn -0.9459 0.2065 0.2501
vn -0.9264 0.3673 0.0823
vn -0.7010 0.1615 0.6946
vn -0.7971 0.2894 -0.5299
vn -0.9326 0.2099 0.2935
vn -0.9474 0.1470 0.2843
vn -0.9377 0.1271 -0.3234
vn -0.1705 0.4696 0.8662
vn -0.9863 0.1536 0.0596
vn -0.7700 0.0923 -0.6313
vn -0.7203 0.1346 -0.6805
vn 0.9242 -0.3388 -0.1764
vn 0.0302 0.0452 -0.9985
vn -0.3104 -0.8416 0.4420
vn -0.3251 0.0426 0.9447
vn 0.5974 0.5371 0.5955
vn -0.3729 0.2819 0.8840
vn -0.0836 -0.1714 0.9816
vn -0.5377 -0.0479 0.8417
vn 0.2350 0.7281 -0.6439
vn 0.3136 0.1929 0.9297
vn -0.0723 -0.1728 0.9823
vn -0.0734 0.4026 0.9124
vn -0.0465 0.2129 0.9760
vn 0.1264 -0.2384 0.9629
vn -0.6440 0.6766 0.3571
vn 0.7854 -0.5849 0.2026
vn -0.0178 0.5822 0.8129
vn -0.1412 0.2570 0.9560
vn 0.0182 -0.0866 0.9961
vn 0.6550 -0.3708 0.6584
vn 0.8407 -0.5324 -0.0989
vn 0.8590 -0.4845 -0.1654
vn 0.8696 0.2806 0.4062
vn 0.4319 0.1872 0.8823
vn 0.9897 -0.0824 0.1167
vn 0.2259 -0.1074 -0.9682
vn 0.7020 -0.0185 0.7119
vn 0.9918 -0.1186 -0.0468
vn 0.9861 0.0226 0.1643
vn 0.7048 -0.5527 -0.4447
vn 0.7673 -0.2479 -0.5914
vn 0.6058 -0.1205 -0.7865
vn 0.8524 -0.4490 -0.2680
vn -0.5502 0.3384 0.7634
vn -0.6706 0.3490 0.6547
vn -0.5125 0.0741 -0.8555
vn -0.7789 0.1202 -0.6156
vn 0.5372 0.0009 -0.8435
vn -0.6582 0.7328 -0.1726
vn 0.8111 -0.1907 -0.5530
vn -0.1794 -0.0575 -0.9821
vn -0.6332 0.6099 -0.4766
vn 0.1818 0.1197 -0.9760
vn 0.3821 0.2333 0.8942
vn 0.8056 -0.0536 -0.5900
vn 0.1926 0.4832 0.8541
vn 0.5034 -0.1355 -0.8534
vn 0.2563 0.0422 -0.9657
vn 0.2080 0.0807 -0.9748
vn 0.5982 -0.2112 -0.7730
vn 0.3336 0.2389 0.9119
vn 0.3069 0.0004 -0.9518
vn 0.9976 0.0676 0.0115
vn 0.7718 0.0791 -0.6309
vn 0.9631 -0.0918 -0.2531
vn 0.9280 0.2379 0.2868
vn 0.4862 -0.4167 -0.7681
vn 0.9332 0.1241 0.3373
vn 0.6541 0.7557 0.0324
vn 0.9695 0.1381 0.2025
vn 0.4577 -0.1958 -0.8673
vn 0.8530 -0.1086 -0.5105
vn 0.9880 0.1111 -0.1074
s 0
f 4//1 3//1 1//1
f 2//2 1//2 9//2
f 6//3 11//3 7//3
f 14//4 11//4 6//4
f 12//5 15//5 8//5
f 11//6 14//6 16//6
f 20//7 14//7 15//7
f 17//8 20//8 19//8
f 17//9 19//9 14//9
f 21//10 20//10 18//10
f 19//11 23//11 22//11
f 22//12 16//12 19//12
f 25//13 24//13 20//13
f 27//14 29//14 28//14
f 27//15 28//15 26//15
f 24//16 29//16 27//16
f 25//17 29//17 24//17
f 13//18 32//18 35//18
f 2//19 5//19 4//19 1//19
f 34//20 16//20 22//20
f 35//21 34//21 40//21
f 36//22 35//22 40//22
f 33//23 35//23 38//23
f 34//24 22//24 40//24
f 37//25 42//25 39//25
f 45//26 41//26 44//26
f 46//27 50//27 49//27
f 48//28 51//28 47//28
f 53//29 5//29 54//29
f 55//30 50//30 47//30
f 51//31 55//31 47//31
f 12//32 3//32 52//32
f 54//33 5//33 10//33
f 54//34 10//34 56//34
f 57//35 53//35 54//35
f 49//36 54//36 56//36
f 50//37 57//37 54//37
f 56//38 10//38 13//38
f 58//39 63//39 18//39
f 63//40 21//40 18//40
f 70//41 66//41 67//41
f 71//42 68//42 69//42
f 73//43 69//43 66//43
f 70//44 73//44 66//44
f 71//45 72//45 68//45
f 73//46 71//46 69//46
f 48//47 74//47 76//47
f 76//48 74//48 75//48
f 76//49 51//49 48//49
f 78//50 51//50 76//50
f 76//51 75//51 77//51
f 78//52 76//52 77//52
f 80//53 81//53 78//53
f 56//54 13//54 82//54
f 79//55 56//55 82//55
f 77//56 85//56 83//56
f 80//57 77//57 83//57
f 82//58 13//58 85//58
f 79//59 82//59 85//59
f 84//60 86//60 89//60
f 85//61 33//61 87//61
f 86//62 88//62 89//62
f 62//63 89//63 91//63
f 89//64 90//64 91//64
f 91//65 90//65 95//65
f 91//66 67//66 62//66
f 94//67 87//67 93//67
f 92//68 67//68 91//68
f 92//69 91//69 95//69
f 93//70 43//70 96//70
f 92//71 70//71 67//71
f 96//72 43//72 98//72
f 96//73 100//73 94//73
f 95//74 97//74 139//74
f 139//75 97//75 100//75
f 95//76 102//76 92//76
f 102//77 95//77 139//77
f 29//78 103//78 28//78
f 105//79 103//79 29//79
f 104//80 105//80 29//80
f 106//81 105//81 104//81
f 40//82 28//82 107//82
f 110//83 42//83 109//83
f 112//84 44//84 111//84
f 114//85 111//85 107//85
f 113//86 109//86 115//86
f 117//87 114//87 116//87
f 105//88 116//88 103//88
f 112//89 117//89 118//89
f 105//90 106//90 119//90
f 121//91 115//91 120//91
f 119//92 125//92 116//92
f 121//93 120//93 126//93
f 118//94 124//94 127//94
f 130//95 125//95 119//95
f 126//96 118//96 127//96
f 129//97 126//97 127//97
f 127//98 130//98 131//98
f 133//99 104//99 132//99
f 132//100 30//100 72//100
f 134//101 133//101 132//101
f 137//102 136//102 99//102
f 140//103 137//103 99//103
f 138//104 101//104 70//104
f 102//105 139//105 138//105
f 141//106 135//106 110//106
f 73//107 101//107 132//107
f 144//108 139//108 136//108
f 145//109 136//109 137//109
f 140//110 145//110 137//110
f 144//111 146//111 138//111
f 142//112 134//112 101//112
f 146//113 142//113 138//113
f 148//114 147//114 146//114
f 145//115 148//115 144//115
f 140//116 143//116 153//116
f 122//117 106//117 133//117
f 149//118 121//118 123//118
f 113//119 121//119 149//119
f 142//120 150//120 134//120
f 154//121 123//121 126//121
f 154//122 151//122 152//122
f 157//123 155//123 151//123
f 157//124 151//124 154//124
f 128//125 122//125 155//125
f 156//126 128//126 155//126
f 154//127 158//127 159//127
f 157//128 159//128 156//128
f 157//129 154//129 159//129
f 159//130 158//130 156//130
f 6//131 7//131 2//131 9//131
f 3//132 8//132 9//132 1//132
f 6//133 9//133 8//133 14//133
f 10//134 2//134 7//134
f 12//135 8//135 3//135
f 10//136 5//136 2//136
f 23//137 19//137 20//137 24//137
f 13//138 10//138 7//138
f 8//139 15//139 14//139
f 12//140 18//140 15//140
f 20//141 17//141 14//141
f 15//142 18//142 20//142
f 16//143 14//143 19//143
f 31//144 32//144 7//144 11//144
f 21//145 25//145 20//145
f 22//146 23//146 26//146
f 23//147 27//147 26//147
f 24//148 27//148 23//148
f 25//149 30//149 29//149
f 32//150 13//150 7//150
f 31//151 34//151 35//151 32//151
f 31//152 11//152 16//152
f 34//153 31//153 16//153
f 37//154 39//154 38//154 35//154
f 33//155 13//155 35//155
f 37//156 35//156 36//156
f 37//157 36//157 41//157
f 4//158 53//158 52//158 3//158
f 41//159 36//159 40//159
f 42//160 37//160 41//160
f 22//161 26//161 28//161
f 40//162 22//162 28//162
f 41//163 40//163 44//163
f 42//164 41//164 45//164
f 43//165 39//165 42//165
f 48//166 47//166 46//166
f 47//167 50//167 46//167
f 52//168 57//168 59//168 58//168
f 5//169 53//169 4//169
f 49//170 50//170 54//170
f 53//171 57//171 52//171
f 55//172 57//172 50//172
f 52//173 58//173 12//173
f 55//174 51//174 60//174 61//174
f 55//175 61//175 57//175
f 63//176 59//176 57//176 61//176
f 58//177 18//177 12//177
f 66//178 64//178 62//178 67//178
f 60//179 64//179 61//179
f 60//180 62//180 64//180
f 59//181 63//181 58//181
f 61//182 65//182 63//182
f 64//183 65//183 61//183
f 63//184 65//184 21//184
f 65//185 64//185 69//185 68//185
f 65//186 25//186 21//186
f 65//187 68//187 25//187
f 30//188 25//188 68//188 72//188
f 66//189 69//189 64//189
f 49//190 75//190 74//190 46//190
f 48//191 46//191 74//191
f 56//192 79//192 75//192 49//192
f 81//193 80//193 86//193 84//193
f 77//194 75//194 79//194
f 80//195 78//195 77//195
f 78//196 81//196 51//196
f 85//197 77//197 79//197
f 51//198 81//198 84//198 60//198
f 87//199 88//199 83//199 85//199
f 86//200 80//200 83//200
f 84//201 62//201 60//201
f 33//202 85//202 13//202
f 88//203 94//203 97//203 90//203
f 86//204 83//204 88//204
f 84//205 89//205 62//205
f 87//206 33//206 38//206
f 89//207 88//207 90//207
f 87//208 38//208 93//208
f 94//209 88//209 87//209
f 110//210 98//210 43//210 42//210
f 95//211 90//211 97//211
f 93//212 38//212 39//212
f 43//213 93//213 39//213
f 96//214 94//214 93//214
f 108//215 112//215 115//215 45//215
f 99//216 96//216 98//216
f 99//217 136//217 96//217
f 97//218 94//218 100//218
f 70//219 101//219 73//219
f 92//220 102//220 70//220
f 30//221 104//221 29//221
f 44//222 40//222 107//222
f 45//223 44//223 108//223
f 42//224 45//224 109//224
f 107//225 28//225 103//225
f 111//226 44//226 107//226
f 108//227 44//227 112//227
f 113//228 110//228 109//228
f 114//229 107//229 103//229
f 114//230 117//230 112//230 111//230
f 115//231 109//231 45//231
f 114//232 103//232 116//232
f 118//233 126//233 120//233 112//233
f 105//234 119//234 116//234
f 120//235 115//235 112//235
f 121//236 113//236 115//236
f 117//237 116//237 124//237
f 116//238 125//238 124//238
f 130//239 119//239 122//239 128//239
f 122//240 119//240 106//240
f 126//241 123//241 121//241
f 118//242 117//242 124//242
f 125//243 127//243 124//243
f 150//244 142//244 146//244 155//244
f 130//245 127//245 125//245
f 128//246 131//246 130//246
f 131//247 129//247 127//247
f 132//248 104//248 30//248
f 71//249 132//249 72//249
f 73//250 132//250 71//250
f 133//251 106//251 104//251
f 135//252 98//252 110//252
f 135//253 99//253 98//253
f 100//254 136//254 139//254
f 100//255 96//255 136//255
f 102//256 138//256 70//256
f 143//257 99//257 135//257
f 101//258 138//258 142//258
f 136//259 145//259 144//259
f 140//260 99//260 143//260
f 139//261 144//261 138//261
f 141//262 110//262 113//262
f 101//263 134//263 132//263
f 143//264 135//264 141//264
f 144//265 148//265 146//265
f 153//266 148//266 145//266
f 140//267 153//267 145//267
f 134//268 122//268 133//268
f 149//269 141//269 113//269
f 155//270 146//270 147//270 151//270
f 152//271 148//271 153//271 149//271
f 147//272 152//272 151//272
f 147//273 148//273 152//273
f 149//274 153//274 143//274 141//274
f 122//275 134//275 150//275 155//275
f 154//276 149//276 123//276
f 126//277 129//277 158//277 154//277
f 154//278 152//278 149//278
f 155//279 157//279 156//279
f 128//280 156//280 158//280 131//280
f 131//281 158//281 129//281
